<?xml version="1.0" standalone="no"?><!DOCTYPE svg PUBLIC "-//W3C//DTD SVG 1.1//EN" "http://www.w3.org/Graphics/SVG/1.1/DTD/svg11.dtd"><svg t="1773570964145" class="icon" viewBox="0 0 1024 1024" version="1.1" xmlns="http://www.w3.org/2000/svg" p-id="9160" xmlns:xlink="http://www.w3.org/1999/xlink" width="200" height="200"><path d="M799.60285494 62H231.14662682c-17.94675146 0-29.91125215 11.97545713-29.91125216 29.92220859v107.70242168H141.3909566c-17.94675146 0-29.93316504 11.97545713-29.93316504 23.90708848s11.98641357 35.93732872 29.93316504 35.93732871h59.84441807v119.64500947H141.3909566c-17.94675146 0-29.93316504 12.05215313-29.93316504 23.96187159s11.97545713 35.90445938 29.92220859 35.90445937h59.84441719v119.66692237H141.3909566c-17.94675146 0-29.93316504 11.97545713-29.93316504 23.93995868s11.97545713 35.90445938 29.92220859 35.9044585h59.84441719v119.66692236H141.3909566c-17.94675146 0-29.93316504 11.97545713-29.93316504 29.91125303s11.97545713 29.92220859 29.92220859 29.9222086h59.84441719v107.70242167c0 11.96450068 11.96450068 23.93995869 29.91125304 23.93995782h568.46718456c47.86896006 0 89.75567021-41.88671016 89.75567021-89.75567022v-688.06836826c0-47.87991651-41.88671016-89.76662666-89.75567021-89.76662666zM261.06883541 798.00306787h59.83346074c17.94675146 0 29.92220859-11.97545713 29.92220947-29.92220859s-11.97545713-29.92220859-29.92220947-29.92220948h-59.83346074V618.49172744h59.83346074c17.94675146 0 29.92220859-11.97545713 29.92220947-29.92220859s-11.97545713-29.92220859-29.92220947-29.92220859h-59.83346074V438.98038789h59.83346074c17.94675146 0 29.92220859-11.97545713 29.92220947-29.92220859s-11.97545713-29.94412148-29.92220947-29.94412237h-59.83346074v-119.64500946h59.83346074c17.94675146 0 29.92220859-11.97545713 29.92220947-29.92220861s-11.97545713-29.92220859-29.92220947-29.92220859h-59.83346074v-77.79116952h412.87389082v747.96756943H261.06883541z m568.44527256 41.88670927c0 17.94675146-11.96450068 29.91125215-29.91125303 29.91125304h-65.81571152V121.84441807h65.82666884c17.94675146 0 29.91125215 11.96450068 29.91125216 29.92220859z m0 0" p-id="9161"></path></svg>