<?xml version="1.0" standalone="no"?><!DOCTYPE svg PUBLIC "-//W3C//DTD SVG 1.1//EN" "http://www.w3.org/Graphics/SVG/1.1/DTD/svg11.dtd"><svg t="1773571853930" class="icon" viewBox="0 0 1326 1024" version="1.1" xmlns="http://www.w3.org/2000/svg" p-id="13610" xmlns:xlink="http://www.w3.org/1999/xlink" width="258.984375" height="200"><path d="M166.627219 6.059172C112.700592 18.783432 66.650888 65.439053 66.650888 107.247337c0 14.542012-4.847337 19.389349-33.325444 34.537278C2.423669 158.144379 0 160.568047 0 181.169231c0 34.537278 18.783432 59.985799 50.897041 67.862722l26.660355 6.665088-14.542011 28.478107c-12.72426 24.236686-13.936095 30.901775-7.876923 47.867456 12.118343 34.537278 44.231953 39.990533 59.985798 10.300591 4.24142-8.48284 11.512426-15.147929 16.359764-15.147929 9.694675 0 9.694675 4.847337 1.211834 29.689941-7.271006 19.995266 1.817751 93.91716 13.330178 107.247337 3.029586 3.635503 9.694675 23.024852 15.147928 41.808284 4.847337 19.389349 12.72426 43.626036 16.965681 53.926628 4.847337 10.300592 12.72426 33.931361 18.783432 52.108875 5.453254 18.177515 16.96568 45.443787 26.054438 60.591716 14.542012 26.054438 15.753846 32.719527 17.571597 127.242604 3.029586 112.700592 0 123.001183-35.749112 142.390532-53.926627 29.084024-36.35503 75.739645 28.478107 75.739645 47.261538 0 77.557396-23.630769 87.857988-69.074556 4.24142-16.96568 12.118343-36.35503 18.177514-43.020118 14.542012-16.359763 21.813018-32.719527 26.660355-57.56213 3.029586-16.359763 33.325444-60.591716 41.202367-60.591716 1.211834 0 0.605917 27.872189 0 61.80355-2.423669 64.227219-12.118343 101.794083-27.266272 101.794083-13.330178 0-28.478107 20.601183-28.478106 38.172781 0 23.630769 20.601183 34.537278 64.227219 34.537278 46.049704 0 58.168047-9.088757 72.104142-54.532544 6.059172-18.177515 15.753846-41.808284 21.813017-52.108876 6.059172-10.300592 9.694675-20.601183 7.876923-22.418935-2.423669-2.423669 0.605917-10.906509 6.059172-18.783432 5.453254-8.48284 9.694675-24.236686 9.694675-35.143195 0-13.936095 6.059172-27.872189 18.783432-43.020119 17.571598-21.207101 19.389349-21.813018 26.660355-12.118343 6.665089 9.088757 10.300592 9.694675 33.931361 2.423669 14.542012-4.24142 31.507692-10.300592 38.172781-13.936095 7.271006-3.635503 13.330178-3.635503 17.571597 0.605917 11.512426 11.512426 22.418935 7.271006 32.11361-13.936094 7.271006-13.936095 13.330178-19.389349 20.601183-17.571598 7.271006 1.817751 14.542012-4.24142 23.630769-18.783432 12.118343-19.389349 14.542012-20.601183 23.024852-12.118343 12.72426 12.118343 22.418935 7.876923 24.842604-11.512426l1.817751-16.359763 18.177515 10.300591c9.694675 6.059172 19.389349 15.147929 21.207101 21.207101 6.665089 22.418935 50.291124 69.074556 83.010651 89.675739 37.566864 23.630769 51.502959 46.049704 56.956213 90.887574 3.029586 26.660355 2.423669 29.084024-12.118343 32.719527-15.753846 3.635503-27.872189 27.872189-23.63077 47.867456 4.847337 22.418935 70.892308 30.901775 97.552663 12.72426 23.024852-16.359763 36.960947-54.532544 36.960947-104.823669v-44.837869l12.72426 11.512426c27.266272 24.236686 41.808284 81.192899 20.601184 81.192899-13.936095 0-33.325444 22.418935-33.325444 39.384615 0 24.842604 19.995266 39.384615 53.926627 39.384616 16.359763 0 36.960947-2.423669 45.443787-6.059172 22.418935-8.48284 36.35503-39.384615 36.35503-81.798816l0.605917-36.35503h29.084023c22.418935 0 31.507692-3.029586 38.172781-12.118343 4.847337-6.665089 12.72426-11.512426 17.571598-10.300592 10.906509 1.817751 25.448521-26.054438 30.901775-57.56213 6.665089-41.202367-21.207101-80.586982-117.547929-167.839053-37.566864-33.931361-45.443787-52.108876-49.685207-123.001184-3.635503-49.685207-7.271006-68.468639-21.2071-95.734911-21.207101-43.020118-66.650888-89.069822-111.488758-111.488757-64.227219-32.719527-93.311243-37.566864-270.239053-43.020119-207.223669-6.665089-242.366864-12.72426-307.2-56.350296-40.59645-27.872189-46.049704-33.325444-43.020118-46.655621 1.817751-10.906509-3.029586-24.236686-17.571598-45.443787C339.919527 47.867456 227.824852-9.088757 166.627219 6.059172z m64.833136 24.236686C286.598817 46.049704 381.727811 126.030769 381.727811 157.538462c0 17.571598-72.710059 71.498225-85.43432 63.015384-4.24142-2.423669-5.453254-23.630769-2.423669-63.015384 4.24142-63.621302 1.211834-84.828402-12.72426-84.828403-6.665089 0-8.48284 12.72426-9.088757 61.80355-0.605917 67.256805-0.605917 73.315976 3.635503 93.91716 4.847337 21.813018 34.537278 18.177515 76.345562-9.694674l35.143195-23.63077 43.626036 30.901776c68.468639 47.867456 92.705325 52.714793 293.263905 58.773964 139.966864 4.24142 178.139645 7.271006 216.312426 17.571598 84.828402 22.418935 136.331361 56.956213 169.656805 114.518343 19.995266 34.537278 19.995266 35.143195 19.995266 114.518343 0 44.231953-2.423669 80.586982-5.453254 80.586982-2.423669 0-3.635503 10.300592-2.423669 22.418935 1.817751 15.753846 0 24.842604-6.059172 29.689941-8.48284 6.059172-7.876923 9.694675 3.635503 29.084024 7.271006 12.72426 12.118343 25.448521 9.694675 28.478106-5.453254 9.088757 9.694675 46.655621 24.842603 63.621302 26.054438 27.872189 41.808284 140.572781 25.448521 179.957397-12.72426 29.689941-24.236686 29.689941-18.783432 0.605917 5.453254-27.872189-8.48284-26.660355-21.813018 2.423668-7.271006 15.147929-12.118343 19.389349-24.236686 18.177515-22.418935-2.423669-24.842604-27.266272-3.029586-32.719527 20.601183-5.453254 26.660355-18.177515 23.024852-52.108875-2.423669-21.207101-9.088757-35.143195-28.478106-58.168048-23.024852-28.478107-38.778698-41.808284-102.4-88.463905-12.72426-9.088757-30.295858-27.872189-39.384616-41.202367-14.542012-23.024852-16.359763-29.689941-15.753846-81.798816 0.605917-49.685207-0.605917-56.956213-9.088757-55.138462-6.059172 1.211834-10.300592 9.088757-11.512426 21.813018-1.211834 10.906509-5.453254 19.389349-10.300592 19.389349-4.24142 0-9.088757 4.24142-11.512426 9.088757-1.817751 4.847337-8.48284 9.088757-15.147929 9.088758-6.059172 0-16.359763 7.271006-22.418935 16.359763l-10.906509 16.965681-3.635503-14.542012c-4.847337-22.418935-17.571598-22.418935-26.054438-1.211835-4.847337 13.330178-9.694675 18.177515-16.359763 15.147929-21.813018-9.694675-36.35503-9.694675-39.990532-0.605917-1.817751 5.453254-7.271006 7.876923-11.512426 6.665089-4.24142-1.817751-9.694675-0.605917-11.512427 2.423669-1.817751 3.635503-8.48284 4.847337-15.147929 3.029585-8.48284-2.423669-15.753846 4.847337-30.901775 32.719527-10.906509 19.389349-21.207101 36.35503-22.418935 37.566864-1.211834 1.817751-8.48284-3.635503-16.359763-10.906509-15.753846-14.542012-27.872189-12.72426-27.872189 4.24142 0 7.271006-5.453254 10.300592-18.177515 10.906509-10.300592 0.605917-18.177515-1.211834-18.177515-3.029586s-3.029586-7.876923-6.059171-12.72426c-4.847337-7.271006-8.48284-6.059172-24.236687 9.088757l-18.177515 17.571598v-24.842604c0-13.936095-2.423669-31.507692-5.453254-39.384615-4.847337-13.330178-3.029586-15.753846 18.177515-24.842604 25.448521-10.906509 27.872189-18.177515 18.177515-60.591716-4.847337-19.389349-4.24142-22.418935 5.453254-22.418934 15.147929 0 30.901775-25.448521 23.630769-38.172781-4.847337-7.876923-1.817751-10.300592 15.753846-13.936095 26.054438-4.847337 26.660355-13.936095 3.029586-32.11361-10.300592-7.271006-16.96568-15.753846-15.147929-18.177514 3.029586-6.059172-34.537278-36.960947-44.83787-36.960947-16.359763 0 3.029586 41.202367 27.87219 59.985799l16.96568 12.118343-16.96568 0.605917c-18.783432 0-27.266272 13.936095-16.965681 26.660355 8.48284 10.300592 2.423669 15.753846-16.359763 15.753846-13.330178 0-14.542012 1.817751-10.906509 18.177515 12.72426 60.591716 12.72426 56.350296-0.605917 49.07929-14.542012-7.271006-19.995266-3.635503-19.995266 13.330177 0 6.665089-4.847337 15.147929-10.300592 19.38935-9.088757 6.665089-9.088757 10.300592-3.029586 23.630769 9.694675 21.813018 9.088757 34.537278-2.423669 42.414201-7.876923 6.059172-8.48284 11.512426-3.029585 30.901775 4.24142 16.359763 4.24142 25.448521 0 30.901775-3.635503 4.24142-6.059172 18.177515-4.847338 30.901775 1.211834 15.147929-3.635503 35.143195-14.542011 58.773965-9.088757 19.389349-16.359763 37.566864-16.359764 40.59645 0 2.423669-5.453254 19.995266-12.72426 38.778698-11.512426 30.901775-13.936095 33.325444-31.507692 33.325444-13.936095 0-16.96568-1.817751-10.906509-5.453255 8.48284-5.453254 5.453254-24.842604-4.847338-24.842603-3.029586 0-9.694675 6.665089-15.147929 15.147929-12.118343 18.177515-27.872189 19.995266-27.872189 3.029585 0-7.876923 6.059172-14.542012 15.147929-18.177514 9.694675-3.635503 19.995266-15.753846 27.266272-31.507693 10.300592-22.418935 12.118343-40.59645 12.118343-136.937278 0-104.823669-0.605917-111.488757-11.512426-114.518343-6.665089-1.817751-13.330178-9.694675-15.147929-17.571598-3.029586-10.300592-7.876923-14.542012-17.571597-14.542011-10.300592 0-16.96568-6.059172-24.236687-21.813018-11.512426-23.630769-26.660355-24.842604-23.630769-2.423669 1.817751 17.571598 29.084024 54.532544 39.990533 54.532545 4.24142 0 13.330178 10.300592 20.601183 23.630769 12.72426 23.024852 12.72426 23.630769 1.817752 37.566864-6.059172 7.876923-13.330178 21.207101-15.753847 29.68994-4.24142 13.936095-6.059172 12.118343-15.753846-18.177514-6.059172-18.177515-11.512426-33.931361-11.512426-35.143196 0-0.605917-4.24142-1.211834-9.694674-1.211834-5.453254 0-10.906509 5.453254-12.724261 12.118343-3.635503 13.936095-2.423669 13.936095-22.418935 6.059172-8.48284-3.029586-19.995266-14.542012-25.44852-25.448521-5.453254-10.906509-17.571598-26.660355-26.054438-35.749112-28.478107-28.478107-36.35503-43.020118-46.655621-89.67574-6.059172-25.448521-14.542012-49.07929-18.783432-52.714793-4.24142-4.24142-12.118343-25.448521-16.965681-47.261538-4.24142-22.418935-10.906509-43.626036-13.936095-47.867456-9.694675-12.118343-12.72426-66.04497-6.059171-93.91716 6.059172-23.630769 9.694675-27.872189 43.626035-44.837869 44.231953-22.418935 43.626036-21.813018 35.749113-29.689941-4.847337-4.847337-19.389349-1.211834-50.291124 12.72426-23.630769 10.300592-44.83787 17.571598-46.655622 15.753846-1.817751-1.211834 10.906509-8.48284 27.87219-16.359763 16.96568-7.271006 39.384615-22.418935 49.685207-33.931361 16.96568-19.389349 17.571598-22.418935 9.694674-33.931361-10.300592-15.147929-21.207101-15.147929-58.773964-0.605917-36.35503 13.936095-124.818935 15.753846-133.301775 2.423669-4.24142-6.665089-1.817751-10.300592 9.088757-13.936095 15.753846-5.453254 24.236686-22.418935 18.783432-39.384616-2.423669-7.271006 3.029586-14.542012 18.177515-24.236686 26.054438-16.96568 30.901775-28.478107 18.177515-43.020118-9.694675-10.300592-9.088757-12.118343 6.665088-30.901775 30.295858-36.35503 76.345562-49.685207 124.213018-36.35503zM42.414201 172.080473c0 9.694675-10.906509 18.783432-16.359763 13.330178-4.847337-4.847337 3.029586-21.813018 10.300592-21.813018 3.029586 0 6.059172 3.635503 6.059171 8.48284zM194.499408 242.366864c-11.512426 9.694675-21.813018 16.96568-23.024852 15.753846-4.847337-4.847337 6.059172-20.601183 18.177515-26.660355 24.236686-11.512426 26.054438-7.271006 4.847337 10.906509z m-49.685207 13.330177C130.272189 282.963314 89.67574 339.313609 84.828402 339.313609c-7.876923 0-12.72426-21.207101-7.876923-33.93136 7.876923-22.418935 29.084024-46.655621 47.261539-54.532545 25.448521-11.512426 28.478107-10.300592 20.601183 4.847337zM1222.740828 684.686391c24.236686 20.601183 50.897041 47.867456 59.379882 60.591716 21.207101 32.113609 24.842604 90.887574 6.059172 90.887573-4.24142 0-13.330178 6.665089-20.601184 15.147929-18.177515 20.601183-45.443787 20.601183-54.532544 0-3.635503-8.48284-9.694675-15.147929-12.118343-15.147929-3.029586 0-7.271006-11.512426-9.088758-25.44852-1.817751-15.147929-8.48284-29.689941-15.147929-35.143196-16.96568-13.936095-26.660355-35.143195-22.418935-48.473372 1.817751-6.059172-0.605917-19.389349-5.453254-29.689941-6.665089-12.72426-7.876923-19.389349-3.029586-22.418935 3.635503-1.817751 5.453254-10.300592 3.635503-18.177515-1.817751-9.694675 0-14.542012 5.453255-14.542012 4.847337 0 8.48284-3.029586 8.48284-7.271006s3.029586-3.635503 7.876923 2.423669c3.635503 5.453254 27.266272 26.660355 51.502958 47.261539z m-295.687574-13.936095c0.605917 39.384615 33.325444 83.616568 92.705326 123.001183 27.266272 18.783432 30.295858 26.660355 30.295858 88.463906 0.605917 37.566864-1.817751 53.32071-11.512426 69.074556-13.330178 23.630769-27.266272 31.507692-22.418935 12.72426 4.24142-16.359763-10.906509-16.96568-25.448521-0.605917-12.118343 13.330178-33.325444 16.359763-33.325444 4.24142 0-10.906509 12.72426-22.418935 24.842604-22.418935 21.207101 0 18.783432-64.227219-4.847337-113.306509-6.059172-13.330178-24.236686-29.689941-50.897042-47.261538-28.478107-18.177515-47.867456-36.35503-59.985799-55.744379l-18.177514-29.084023 13.330177-10.906509c7.876923-6.059172 21.207101-13.936095 30.901775-17.571598 9.088757-3.029586 16.359763-8.48284 16.359764-11.512426s4.24142-5.453254 9.088757-5.453254c6.059172 0 9.088757 6.059172 9.088757 16.359763zM281.751479 745.278107c9.088757 13.330178 21.813018 24.236686 27.266272 24.236686 6.059172 0 13.936095 4.24142 18.177515 9.088757 4.24142 4.847337 11.512426 9.088757 15.753846 9.088758 11.512426 0 11.512426 39.990533 0.605918 44.231952-5.453254 1.817751-7.271006 9.694675-5.453255 21.207101 1.817751 12.72426-1.817751 21.813018-13.330177 33.931361-8.48284 9.694675-18.177515 30.901775-22.418935 49.685207-7.876923 35.749112-17.571598 47.867456-43.626036 53.926627-14.542012 3.635503-16.359763 3.029586-15.147929-9.088757 2.423669-19.389349-12.118343-21.813018-19.995266-3.635503-7.876923 16.96568-10.300592 18.177515-23.024852 10.300592-11.512426-7.271006-1.211834-20.601183 22.418935-30.295858 34.537278-14.542012 40.59645-35.749112 40.596449-141.784616 0-52.108876 0.605917-95.128994 0.605918-95.128994 0.605917 0 8.48284 10.906509 17.571597 24.236687z" p-id="13611"></path><path d="M152.085207 66.04497c-4.847337 3.029586-6.665089 9.694675-4.847337 14.542012 4.847337 12.118343 29.689941 6.059172 27.266272-6.665089-2.423669-11.512426-11.512426-14.542012-22.418935-7.876923zM153.902959 99.976331c-1.817751 4.847337-1.817751 11.512426 0.605917 15.147929 5.453254 9.088757 39.384615 7.876923 39.384615-1.817751 0-19.995266-33.325444-30.901775-39.990532-13.330178z" p-id="13612"></path></svg>