<?xml version="1.0" standalone="no"?><!DOCTYPE svg PUBLIC "-//W3C//DTD SVG 1.1//EN" "http://www.w3.org/Graphics/SVG/1.1/DTD/svg11.dtd"><svg t="1773571621769" class="icon" viewBox="0 0 1024 1024" version="1.1" xmlns="http://www.w3.org/2000/svg" p-id="12340" xmlns:xlink="http://www.w3.org/1999/xlink" width="200" height="200"><path d="M512 597.333333c-140.8 0-256-115.2-256-256S371.2 85.333333 512 85.333333s256 115.2 256 256-115.2 256-256 256z m0-448c-106.666667 0-192 85.333333-192 192s85.333333 192 192 192 192-85.333333 192-192-85.333333-192-192-192z m328.533333 789.333334H183.466667c-19.2 0-36.266667-6.4-51.2-17.066667-19.2-12.8-29.866667-34.133333-34.133334-55.466667-4.266667-23.466667 2.133333-44.8 17.066667-64C206.933333 680.533333 341.333333 618.666667 512 618.666667c170.666667 0 305.066667 61.866667 396.8 183.466666 10.666667 14.933333 17.066667 32 17.066667 51.2 0 23.466667-8.533333 44.8-25.6 59.733334S861.866667 938.666667 840.533333 938.666667zM512 682.666667c-151.466667 0-264.533333 51.2-345.6 157.866666-4.266667 4.266667-4.266667 10.666667-4.266667 14.933334 0 6.4 4.266667 10.666667 8.533334 14.933333 4.266667 2.133333 8.533333 4.266667 12.8 4.266667h654.933333c6.4 0 10.666667-2.133333 14.933333-6.4 4.266667-4.266667 6.4-8.533333 6.4-14.933334 0-4.266667-2.133333-8.533333-4.266666-12.8-78.933333-106.666667-192-157.866667-343.466667-157.866666z" p-id="12341"></path></svg>