<?xml version="1.0" standalone="no"?><!DOCTYPE svg PUBLIC "-//W3C//DTD SVG 1.1//EN" "http://www.w3.org/Graphics/SVG/1.1/DTD/svg11.dtd"><svg t="1773900973704" class="icon" viewBox="0 0 1024 1024" version="1.1" xmlns="http://www.w3.org/2000/svg" p-id="7117" xmlns:xlink="http://www.w3.org/1999/xlink" width="200" height="200"><path d="M512 16.217195c273.838914 0 495.782805 221.943891 495.782805 495.782805S785.838914 1007.782805 512 1007.782805" fill="#F9E4D2" p-id="7118"></path><path d="M108.886878 523.58371a484.199095 403.113122 90 1 0 806.226244 0 484.199095 403.113122 90 1 0-806.226244 0Z" fill="#FFF6EB" p-id="7119"></path><path d="M501.922172 513.853394m-191.362896 0a191.362896 191.362896 0 1 0 382.725792 0 191.362896 191.362896 0 1 0-382.725792 0Z" fill="#FFFFFF" p-id="7120"></path><path d="M501.922172 322.374661c105.527602 0 191.131222 85.487783 191.362896 190.899547 147.113122 67.99638-3.359276 233.295928 115.026244 233.295928 124.872398 0 22.356561-204.104977 119.312217-246.848869 34.171946-15.058824 70.081448 14.01629 70.081448 14.01629 0-273.838914-221.943891-495.782805-495.782805-495.782806" fill="#FF554D" p-id="7121"></path><path d="M503.080543 27.916742c-234.80181 0-411.221719 220.438009-411.221719 481.650679 0 62.088688 0.463348 116.300452 34.982805 102.515837 39.037104-15.522172 18.4181-79.695928 81.085973-79.695928 30.928507 0-7.413575 191.247059 93.133031 191.247059 31.855204 0 45.639819-50.157466 58.729412-92.322172-26.526697-32.434389-42.512217-84.676923-42.512217-132.054298 0-100.778281 95.2181-181.053394 185.802715-181.053394 90.468778 0 179.663348 95.449774 179.895023 195.99638 125.567421 15.058824 56.528507 202.946606 82.823529 208.622624 104.832579 22.704072 19.113122-194.722172 102.284163-235.496832 29.306787-14.363801 60.119457 13.437104 60.119457 13.437104 0-261.21267-190.320362-472.847059-425.122172-472.847059z" fill="#FF7C66" p-id="7122"></path><path d="M512 1024c-69.154751 0-136.108597-13.552941-199.355656-40.195475-60.930317-25.831674-115.721267-62.667873-162.751131-109.697738C102.979186 827.076923 66.027149 772.285973 40.195475 711.355656 13.552941 648.108597 0 581.154751 0 512c0-69.154751 13.552941-136.108597 40.195475-199.355656C66.027149 251.714027 102.979186 196.923077 150.00905 150.00905 196.923077 102.979186 251.714027 66.027149 312.644344 40.195475 375.891403 13.552941 442.845249 0 512 0c69.154751 0 136.108597 13.552941 199.355656 40.195475C772.285973 66.027149 827.076923 102.979186 873.99095 150.00905c47.029864 47.029864 83.9819 101.820814 109.697738 162.751131 26.758371 63.131222 40.311312 130.085068 40.311312 199.239819s-13.552941 136.108597-40.195475 199.355656c-25.831674 60.930317-62.667873 115.721267-109.697738 162.751131s-101.820814 83.9819-162.751131 109.697738C648.108597 1010.447059 581.154751 1024 512 1024z m0-991.565611C247.543891 32.434389 32.434389 247.543891 32.434389 512s215.109502 479.565611 479.565611 479.565611 479.565611-215.109502 479.565611-479.565611S776.456109 32.434389 512 32.434389z" fill="" p-id="7123"></path><path d="M501.922172 721.433484c-114.447059 0-207.58009-93.133032-207.580091-207.58009 0-114.447059 93.133032-207.58009 207.580091-207.580091s207.58009 93.133032 207.58009 207.580091c0 114.447059-93.133032 207.58009-207.58009 207.58009z m0-382.841629c-96.608145 0-175.145701 78.537557-175.145701 175.145702s78.537557 175.145701 175.145701 175.145701 175.145701-78.537557 175.145701-175.145701-78.653394-175.145701-175.145701-175.145702z" fill="" p-id="7124"></path><path d="M808.311312 762.903167c-23.630769 0-40.542986-5.907692-51.663348-18.070588-17.954751-19.692308-15.174661-49.578281-12.162896-81.20181 4.865158-51.2 9.846154-104.137557-58.034389-135.529412l-9.382806-4.285972v-10.309503c-0.231674-96.376471-78.769231-174.79819-175.145701-174.79819-96.608145 0-175.145701 78.537557-175.145701 175.145702 0 43.786425 16.217195 85.60362 45.639819 117.922172l6.486877 7.066063-3.127601 9.151131c-9.035294 26.179186-16.912217 45.523982-27.800905 60.930317-14.363801 20.155656-33.013575 30.465158-55.370136 30.465158-37.299548 0-62.552036-16.101357-74.946606-47.840724-9.846154-24.904977-10.077828-55.717647-10.193666-82.939366-0.115837-17.954751-0.231674-34.982805-3.127601-46.566516-2.548416-10.657014-5.791855-10.888688-8.108598-11.120362-15.406335-1.274208-17.60724 2.664253-25.368325 21.893213-8.456109 21.082353-21.429864 52.937557-70.776471 64.637104-20.503167 4.865158-41.353846 0-58.729412-13.784616C15.638009 603.395475 0.347511 565.632579 0.347511 522.888688c0-142.132127 51.315837-273.838914 144.564706-370.678733C238.161086 55.254299 365.002715 1.853394 501.922172 1.853394c69.270588 0 136.80362 13.20543 200.629864 39.384615C764.524887 66.606335 820.358371 103.095023 868.314932 149.429864c99.851584 96.492308 154.758371 225.882353 154.758371 364.307693v29.770135l-25.020814-16.101357c-10.541176-6.718552-42.743891-22.240724-64.057919-12.857919-35.909502 15.869683-37.531222 63.478733-39.152941 113.867874-1.042534 30.928507-2.085068 62.899548-12.278733 87.804524-12.510407 30.928507-37.531222 46.682353-74.251584 46.682353z m-99.156561-259.706787c34.056109 17.954751 55.138462 42.859729 64.521267 75.757466 8.456109 29.885973 5.560181 60.582805 3.011765 87.688688-2.316742 24.209955-4.517647 47.145701 3.822624 56.296833 4.517647 4.980995 13.784615 7.529412 27.569231 7.529411 46.103167 0 51.895023-31.391855 54.327602-103.095022 1.853394-55.485973 3.938462-118.38552 58.497737-142.479638 23.514932-10.425339 50.041629-4.633484 68.923077 2.664253-13.900452-252.293213-227.504072-453.270588-488.137556-453.270588-263.066063 0-469.140271 214.646154-469.140272 488.716742 0 32.897738 10.772851 61.046154 28.727602 75.294118 6.602715 5.21267 17.375566 10.888688 31.160181 7.645248 33.129412-7.761086 40.427149-25.947511 48.188235-45.17647 7.761086-19.228959 18.4181-45.523982 58.150227-42.048869 13.089593 1.158371 30.00181 8.224434 36.836199 35.677828 3.706787 15.174661 3.938462 34.056109 4.054298 53.980091 0.463348 61.393665 4.285973 98.693213 52.82172 98.693212 22.472398 0 34.866968-20.38733 49.346606-60.698642-30.81267-37.18371-47.724887-83.866063-47.724887-132.40181 0-114.447059 93.133032-207.58009 207.580091-207.580091 55.370136 0 107.496833 21.545701 146.649773 60.698643 36.952036 36.488688 58.266063 84.561086 60.81448 136.108597z" fill="" p-id="7125"></path><path d="M356.778281 249.513122c-3.706787 0-7.529412-1.274208-10.541177-3.938461l-45.639819-39.384616c-6.834389-5.791855-7.529412-16.101357-1.737556-22.819909 5.791855-6.834389 16.101357-7.529412 22.819909-1.737557l45.639819 39.384616c6.834389 5.791855 7.529412 16.101357 1.737557 22.819909-3.127602 3.706787-7.645249 5.676018-12.278733 5.676018zM791.167421 484.199095c-5.328507 0-10.541176-2.664253-13.668778-7.413575-4.865158-7.529412-2.664253-17.60724 4.865158-22.472398l41.469683-26.758371c7.529412-4.865158 17.60724-2.664253 22.472398 4.865159 4.865158 7.529412 2.664253 17.60724-4.865158 22.472398l-41.469683 26.758371c-2.664253 1.621719-5.791855 2.548416-8.80362 2.548416zM463.000905 137.730317c-8.108597 0-15.174661-6.139367-16.101357-14.363801-1.042534-8.919457 5.328507-16.912217 14.247963-17.954751l59.076923-6.834389c8.919457-1.042534 16.912217 5.328507 17.954752 14.247963 1.042534 8.919457-5.328507 16.912217-14.247964 17.954751l-59.076923 6.83439c-0.579186 0.115837-1.274208 0.115837-1.853394 0.115837zM868.083258 344.036199c-4.170136 0-8.340271-1.621719-11.467873-4.749321l-42.975566-42.975566c-6.371041-6.371041-6.371041-16.564706 0-22.935746s16.564706-6.371041 22.935747 0l42.975565 42.975565c6.371041 6.371041 6.371041 16.564706 0 22.935747-3.243439 3.127602-7.297738 4.749321-11.467873 4.749321zM153.020814 421.299548c-6.486878 0-12.626244-3.938462-15.17466-10.42534-3.243439-8.340271 0.926697-17.723077 9.382805-20.966516l64.984616-24.904977c8.340271-3.243439 17.723077 0.926697 20.966515 9.382805s-0.926697 17.723077-9.382805 20.966516l-64.984615 24.904978c-1.853394 0.695023-3.822624 1.042534-5.791856 1.042534zM645.328507 268.047059c-4.170136 0-8.340271-1.621719-11.467874-4.749321-6.371041-6.371041-6.371041-16.564706 0-22.935747l46.103168-46.103167c6.371041-6.371041 16.564706-6.371041 22.935747 0s6.371041 16.564706 0 22.935746L656.79638 263.297738c-3.127602 3.243439-7.297738 4.749321-11.467873 4.749321z" fill="#FFFFFF" p-id="7126"></path></svg>