<?xml version="1.0" standalone="no"?><!DOCTYPE svg PUBLIC "-//W3C//DTD SVG 1.1//EN" "http://www.w3.org/Graphics/SVG/1.1/DTD/svg11.dtd"><svg t="1773571330963" class="icon" viewBox="0 0 1024 1024" version="1.1" xmlns="http://www.w3.org/2000/svg" p-id="10283" xmlns:xlink="http://www.w3.org/1999/xlink" width="200" height="200"><path d="M376.32 316.16a30.72 30.72 0 0 0 30.72-30.72V133.12A30.72 30.72 0 0 0 345.6 133.12v152.32a30.72 30.72 0 0 0 30.72 30.72" fill="#000000" p-id="10284"></path><path d="M673.28 316.16a30.72 30.72 0 0 0 30.72-30.72V133.12A30.72 30.72 0 0 0 642.56 133.12v152.32a30.72 30.72 0 0 0 30.72 30.72" fill="#000000" p-id="10285"></path><path d="M468.6848 718.6944h3.584a31.9488 31.9488 0 0 0 15.7184-5.4784l273.6128-218.7776a30.7712 30.7712 0 1 0-38.144-48.1792l-250.7776 200.5504-132.864-132.8128a30.8736 30.8736 0 0 0-42.9056 0.512 30.8736 30.8736 0 0 0-0.3584 43.008L450.56 711.5264c0.512 0.512 1.1776 0.9728 1.8432 1.4336a30.72 30.72 0 0 0 15.1552 5.632M481.28 250.88h87.04a30.72 30.72 0 0 0 0-61.44H481.28a30.72 30.72 0 0 0 0 61.44" fill="#000000" p-id="10286"></path><path d="M767.3856 189.44a30.72 30.72 0 0 0 0 61.44H829.44c31.0272 0 56.32 25.2416 56.32 56.32v522.24c0 31.0272-25.2928 56.32-56.32 56.32H220.16a56.1152 56.1152 0 0 1-56.32-56.32V307.2c0-31.0784 25.2928-56.32 56.32-56.32h62.0544a30.72 30.72 0 1 0 0-61.44H220.16A117.9136 117.9136 0 0 0 102.4 307.2v522.24c0 64.9216 52.8384 117.76 117.76 117.76h609.28c64.9216 0 117.76-52.8384 117.76-117.76V307.2c0-64.9216-52.8384-117.76-117.76-117.76h-62.0544z" fill="#000000" p-id="10287"></path></svg>