<?xml version="1.0" standalone="no"?><!DOCTYPE svg PUBLIC "-//W3C//DTD SVG 1.1//EN" "http://www.w3.org/Graphics/SVG/1.1/DTD/svg11.dtd"><svg t="1773571562662" class="icon" viewBox="0 0 1026 1024" version="1.1" xmlns="http://www.w3.org/2000/svg" p-id="11327" xmlns:xlink="http://www.w3.org/1999/xlink" width="200.390625" height="200"><path d="M1002.228345 5.12a59.448889 59.448889 0 0 0-60.586666 10.24L21.463901 552.106667l-5.12 3.413333A46.933333 46.933333 0 0 0 0.415012 597.333333a64.568889 64.568889 0 0 0 39.537778 44.657778l260.835555 92.728889 17.066667-52.053333-258.275556-91.022223L878.210568 113.777778 405.748345 707.982222V1024h64.284445V732.444444L961.837234 113.777778l-126.008889 743.822222v3.128889a20.764444 20.764444 0 0 1-5.12 12.231111 18.488889 18.488889 0 0 1-12.515555 0l-282.168889-98.702222-16.213333 51.484444 284.444444 99.271111h3.413333a73.955556 73.955556 0 0 0 15.928889 1.706667 60.302222 60.302222 0 0 0 39.253334-13.653333 74.524444 74.524444 0 0 0 23.893333-49.493334L1024.415012 58.595556v-3.413334a48.924444 48.924444 0 0 0-22.186667-50.062222z" fill="#262626" p-id="11328"></path><path d="M317.570568 524.8a279.324444 279.324444 0 0 1-16.782223 107.804444 76.231111 76.231111 0 0 0-15.928889-11.093333 247.466667 247.466667 0 0 0 13.937778-96.426667v-47.786666h139.377778v15.644444H373.037234l15.644445 2.275556-3.413334 6.542222H427.081679v47.786667h-17.635556c8.248889 5.688889 19.626667 13.653333 25.6 18.488889l-13.937778 11.662222a299.52 299.52 0 0 0-28.444444-21.333334l11.093333-8.817777h-18.488889v13.937777c0 7.68-1.706667 11.093333-7.395555 13.653334a64.284444 64.284444 0 0 1-23.04 2.275555 56.888889 56.888889 0 0 0-5.973334-14.791111h15.075556c1.991111 0 2.56 0 2.56-2.275555v-13.084445H341.748345l16.213334 5.973334a214.471111 214.471111 0 0 1-26.737778 24.462222c-3.697778-3.128889-10.524444-8.533333-14.791111-11.377778a115.484444 115.484444 0 0 0 23.893333-19.057778h-11.093333v-47.502222h33.848889c0-3.128889 0-6.257778 1.422222-8.817778h-46.933333z m-6.257778 91.022222a108.942222 108.942222 0 0 0 13.084444-31.857778l14.791111 5.688889a110.08 110.08 0 0 1-12.515555 32.711111z m83.626666-3.413333c6.257778 0 7.395556-1.706667 8.248889-13.653333a47.502222 47.502222 0 0 0 15.644445 6.257777c-1.991111 18.773333-7.111111 23.324444-22.186667 23.324445H370.19279c-20.764444 0-25.6-4.835556-25.6-20.764445v-22.471111h17.635555v22.186667c0 4.835556 1.422222 5.12 9.671111 5.12z m13.937778-99.555556h-60.586666v7.395556h60.586666z m-60.586666 25.6h60.586666v-7.68h-60.586666z m32.426666 40.391111c5.973333 5.688889 14.506667 13.937778 18.773334 18.773334l-13.937778 9.671111a215.324444 215.324444 0 0 0-18.204445-19.911111z m46.08 1.706667c5.973333 8.533333 13.937778 20.195556 18.204445 28.444445l-16.497778 7.111111c-3.697778-7.111111-11.377778-19.626667-17.351111-28.444445zM693.606123 736.142222a168.96 168.96 0 0 1-44.373333 25.031111 117.191111 117.191111 0 0 0-14.791111-14.222222 131.697778 131.697778 0 0 0 40.675555-18.204444zM789.179456 682.666667h-150.471111v-15.928889h64.568889c0-1.706667-1.991111-3.128889-2.844444-4.551111l7.68-2.56h-51.768889v-50.062223h115.768889v50.915556h-51.484445a46.933333 46.933333 0 0 1 4.266667 7.111111h64.284444z m-64.284444 43.52v19.057777c0 8.533333-2.275556 12.515556-8.817778 14.791112a92.728889 92.728889 0 0 1-28.444444 2.275555 60.017778 60.017778 0 0 0-5.404445-15.644444h18.204445c2.275556 0 3.128889 0 3.128889-2.56v-18.204445H660.326123v-36.124444H768.415012v37.262222z m-49.208889-98.133334h75.946667v-7.111111h-75.946667z m0 19.057778h75.946667v-7.395555h-75.946667z m3.982222 65.137778h69.404445v-9.386667h-69.404445z m65.706667 15.928889a270.506667 270.506667 0 0 1 44.657778 19.911111l-14.222222 12.515555a286.72 286.72 0 0 0-43.804445-21.048888z" fill="#262626" p-id="11329"></path></svg>